HIERARCHY
ROOT Hips
{
	OFFSET 0.00000 0.00000 0.00000
	CHANNELS 6 Xposition Yposition Zposition Zrotation Yrotation Xrotation 
	JOINT LHipJoint
	{
		OFFSET 0 0 0
		CHANNELS 3 Zrotation Yrotation Xrotation
		JOINT LeftHip
		{
			OFFSET 1.34019 -1.87553 0.90315
			CHANNELS 3 Zrotation Yrotation Xrotation
			JOINT LeftKnee
			{
				OFFSET 2.55316 -7.01474 0.00000
				CHANNELS 3 Zrotation Yrotation Xrotation
				JOINT LeftAnkle
				{
					OFFSET 2.64657 -7.27139 0.00000
					CHANNELS 3 Zrotation Yrotation Xrotation
					JOINT LeftToe
					{
						OFFSET 0.24207 -0.66507 2.14489
						CHANNELS 3 Zrotation Yrotation Xrotation
						End Site
						{
							OFFSET 0.00000 -0.00000 1.12451
						}
					}
				}
			}
		}
	}
	JOINT RHipJoint
	{
		OFFSET 0 0 0
		CHANNELS 3 Zrotation Yrotation Xrotation
		JOINT RightHip
		{
			OFFSET -1.28320 -1.87553 0.90315
			CHANNELS 3 Zrotation Yrotation Xrotation
			JOINT RightKnee
			{
				OFFSET -2.60484 -7.15674 0.00000
				CHANNELS 3 Zrotation Yrotation Xrotation
				JOINT RightAnkle
				{
					OFFSET -2.60296 -7.15159 0.00000
					CHANNELS 3 Zrotation Yrotation Xrotation
					JOINT RightToe
					{
						OFFSET -0.31082 -0.85398 2.28998
						CHANNELS 3 Zrotation Yrotation Xrotation
						End Site
						{
							OFFSET -0.00000 -0.00000 1.21611
						}
					}
				}
			}
		}
	}
	JOINT lowerback
	{
		OFFSET 0 0 0
		CHANNELS 3 Zrotation Yrotation Xrotation
		JOINT Chest
		{
			OFFSET -0.00160 2.05581 -0.15156
			CHANNELS 3 Zrotation Yrotation Xrotation
			JOINT Chest2
			{
				OFFSET 0.04594 2.06326 -0.01617
				CHANNELS 3 Zrotation Yrotation Xrotation
				JOINT lowerneck
				{
					OFFSET 0 0 0
					CHANNELS 3 Zrotation Yrotation Xrotation
					JOINT Neck
					{
						OFFSET 0.03753 1.73883 0.26751
						CHANNELS 3 Zrotation Yrotation Xrotation
						JOINT Head
						{
							OFFSET -0.09795 1.76129 -0.31794
							CHANNELS 3 Zrotation Yrotation Xrotation
							End Site
							{
								OFFSET -0.03611 1.79987 -0.13846
							}
						}
					}
				}
				JOINT LeftCollar
				{
					OFFSET 0 0 0
					CHANNELS 3 Zrotation Yrotation Xrotation
					JOINT LeftShoulder
					{
						OFFSET 3.30667 1.29205 -0.22445
CHANNELS 3 Zrotation Xrotation Yrotation
						JOINT LeftElbow
						{
OFFSET 0 -4.927850 -0.000000
CHANNELS 3 Zrotation Xrotation Yrotation
							JOINT LeftWrist
							{
OFFSET 0 -3.440520 0.000000
CHANNELS 3 Zrotation Xrotation Yrotation
								JOINT lhand
								{
									OFFSET 0 0 0
CHANNELS 3 Zrotation Xrotation Yrotation
									JOINT LFingers
									{
OFFSET 0 -0.654330 0.000000
CHANNELS 3 Zrotation Xrotation Yrotation
										End Site
										{
OFFSET 0 -0.527530 0.000000
										}
									}
								}
								JOINT LThumb
								{
OFFSET 0 0.000000 0.000000
CHANNELS 3 Zrotation Xrotation Yrotation
									End Site
									{
OFFSET 0 -0.535590 0.535590
									}
								}
							}
						}
					}
				}
				JOINT RightCollar
				{
					OFFSET 0 0 0
					CHANNELS 3 Zrotation Yrotation Xrotation
					JOINT RightShoulder
					{
						OFFSET -3.20032 1.49783 -0.27688
CHANNELS 3 Zrotation Xrotation Yrotation
						JOINT RightElbow
						{
OFFSET 0 -5.091810 -0.000000
CHANNELS 3 Zrotation Xrotation Yrotation
							JOINT RightWrist
							{
OFFSET 0 -3.498650 -0.000000
CHANNELS 3 Zrotation Xrotation Yrotation
								JOINT rhand
								{
									OFFSET 0 0 0
CHANNELS 3 Zrotation Xrotation Yrotation
									JOINT RFingers
									{
OFFSET 0 -0.666410 0.000000
CHANNELS 3 Zrotation Xrotation Yrotation
										End Site
										{
OFFSET 0 -0.537280 0.000000
										}
									}
								}
								JOINT RThumb
								{
OFFSET 0 0.000000 0.000000
CHANNELS 3 Zrotation Xrotation Yrotation
									End Site
									{
OFFSET 0 -0.545480 0.545480
									}
								}
							}
						}
					}
				}
			}
		}
	}
}
MOTION
Frames: 7
Frame Time: 0.008333333333333333
0.023200 17.604200 -31.152100 -2.119300 2.737800 1.152800 0.000000 0.000000 0.000000 -20.338800 -7.124700 -13.822900 4.265900 12.506100 37.546600 -1.850100 24.537300 -18.117200 4.154400 12.363000 37.028600 0.000000 0.000000 0.000000 23.052700 3.698600 -11.662100 -3.448300 -11.387700 33.598800 -0.233600 -14.584700 -23.064200 -3.139500 -10.917500 32.002200 -2.329200 -0.190000 2.424600 3.841200 -0.243400 -1.099500 5.299200 -0.050500 -2.468800 7.023900 1.745700 -23.333300 -8.802500 2.699300 28.474100 -4.242100 0.701900 13.798800 -0.000000 -0.000000 0.000000 1.045200 6.410400 -21.456700 15.191500 -24.412300 3.304700 12.784400 -5.230800 -1.436800 0.000000 0.000000 0.000000 -7.125000 0.000000 0.000000 -10.983100 31.335500 -3.729800 -0.000000 -0.000000 0.000000 -6.933400 3.637700 10.450200 -13.101500 -21.435700 -2.490200 -16.597500 -0.471200 4.527900 0.000000 0.000000 0.000000 7.125000 0.000000 -0.000000 8.301800 34.609400 2.136200
0.020423 17.599788 -31.116138 -1.963940 3.040630 0.999096 0.000000 0.000000 0.000000 -20.527885 -7.039571 -13.504049 4.243095 12.477060 37.441109 -1.894465 24.600809 -17.533180 4.595826 12.913631 39.045966 0.000000 0.000000 0.000000 22.877369 3.279728 -11.444621 -3.449933 -11.390073 33.607048 -0.275384 -14.450996 -23.287839 -3.152257 -10.937541 32.069525 -10.281708 7.066261 1.768768 5.214931 9.355884 -0.813411 10.620180 5.048486 -4.406616 5.011296 -7.794232 -25.462263 -8.051604 -10.708490 29.438338 -5.966117 -5.261971 13.353355 0.000000 0.000000 0.000000 2.147752 2.570055 -42.750021 14.104578 -22.884087 2.868662 12.760432 -5.289253 -1.993824 0.000000 0.000000 0.000000 -7.125000 0.000000 0.000000 -11.072347 31.895424 -3.609241 0.000000 0.000000 0.000000 -5.409835 6.588825 -8.934512 -14.519749 -23.472812 -3.032063 -16.681290 -2.538395 4.281120 0.000000 0.000000 0.000000 7.125000 0.000000 0.000000 8.203264 34.358267 2.160933
0.011105 17.595375 -31.095901 -2.100216 3.299626 0.946979 0.000000 0.000000 0.000000 -20.392935 -7.417216 -13.359197 4.276809 12.519969 37.597121 -1.921963 24.751804 -17.607191 4.592020 12.909049 39.028903 0.000000 0.000000 0.000000 23.077672 3.127102 -11.227833 -3.414326 -11.337306 33.426099 -0.276009 -14.519784 -23.377417 -3.162735 -10.953970 32.124910 -8.122399 6.876513 2.111206 3.778714 9.059712 -1.007897 7.842753 4.785787 -4.121188 6.183577 -7.352056 -25.607583 -7.293553 -10.825378 29.365057 -5.874237 -5.068675 13.322693 0.000000 0.000000 0.000000 4.469655 2.815667 -42.292621 14.010733 -22.750096 2.832223 12.654954 -5.666960 -2.039679 0.000000 0.000000 0.000000 -7.125000 0.000000 0.000000 -11.161748 31.938624 -3.627586 0.000000 0.000000 0.000000 -3.180114 6.059941 -8.962914 -14.361824 -23.249611 -2.969417 -16.703975 -1.708264 4.263687 0.000000 0.000000 0.000000 7.125000 0.000000 0.000000 8.182687 34.341232 2.158822
0.007495 17.593658 -31.076204 -2.047175 3.538238 0.868043 0.000000 0.000000 0.000000 -20.479249 -7.489293 -13.176267 4.276047 12.518957 37.593512 -1.919451 24.729933 -17.567549 4.615770 12.937602 39.135338 0.000000 0.000000 0.000000 23.058951 3.015844 -11.073491 -3.416459 -11.340438 33.436893 -0.269790 -14.674323 -23.510024 -3.151156 -10.935866 32.063912 -6.085712 6.628689 2.604790 2.234498 8.695121 -1.248345 5.080441 4.513579 -4.006843 7.325946 -6.853331 -25.532621 -6.457452 -10.857126 29.199582 -5.714571 -4.835808 13.231831 0.000000 0.000000 0.000000 6.781455 3.104253 -41.801586 13.979073 -22.704733 2.820045 12.487363 -6.044923 -2.768435 0.000000 0.000000 0.000000 -7.125000 0.000000 0.000000 -11.392686 32.665666 -3.501619 0.000000 0.000000 0.000000 -0.949824 5.628068 -8.763543 -14.213916 -23.039624 -2.911318 -16.631111 -0.947780 4.019313 0.000000 0.000000 0.000000 7.125000 0.000000 0.000000 8.212996 34.085992 2.218340
0.010579 17.593400 -31.058822 -2.110508 3.715438 0.833692 0.000000 0.000000 0.000000 -20.422673 -7.473222 -13.119525 4.281793 12.526214 37.619854 -1.911576 24.670792 -17.480968 4.639987 12.966507 39.243108 0.000000 0.000000 0.000000 23.125371 2.788023 -11.036867 -3.411508 -11.333147 33.411900 -0.252278 -14.752535 -23.446239 -3.120001 -10.886752 31.898976 -3.281616 5.808245 3.015643 0.535565 7.626305 -1.523867 1.864660 3.880611 -3.756202 8.914020 -5.618756 -25.445718 -6.011979 -9.889250 29.276076 -5.645906 -4.162009 13.287080 0.000000 0.000000 0.000000 9.210625 3.856547 -40.183422 14.202902 -23.024015 2.906993 12.231144 -6.610547 -2.607123 0.000000 0.000000 0.000000 -7.125000 0.000000 0.000000 -11.574463 32.495723 -3.607966 0.000000 0.000000 0.000000 1.260670 5.305142 -6.954635 -14.131723 -22.922670 -2.879217 -16.789010 -0.152118 4.039033 0.000000 0.000000 0.000000 7.125000 0.000000 0.000000 8.086670 34.112574 2.178379
0.013112 17.591963 -31.050212 -2.187219 3.671152 0.787018 0.000000 0.000000 0.000000 -20.380290 -7.557095 -13.017502 4.288798 12.535047 37.652014 -1.939862 24.817398 -17.525568 4.642284 12.969234 39.253360 0.000000 0.000000 0.000000 23.216641 2.777939 -10.929852 -3.398852 -11.314365 33.347434 -0.245851 -14.794250 -23.438477 -3.112358 -10.874681 31.858515 -2.101484 6.060352 3.229542 -0.614516 7.968167 -1.702371 0.004873 4.007022 -3.753272 9.747299 -5.944214 -25.537037 -5.081021 -11.041157 29.394224 -5.601192 -4.421739 13.273039 0.000000 0.000000 0.000000 11.310216 3.392147 -41.531670 14.387548 -23.286119 2.979622 12.224862 -7.367928 -2.939875 0.000000 0.000000 0.000000 -7.125000 0.000000 0.000000 -11.626235 32.828973 -3.529196 0.000000 0.000000 0.000000 3.256804 4.937123 -7.921573 -14.165659 -22.971058 -2.892399 -16.558274 0.220653 3.678140 0.000000 0.000000 0.000000 7.125000 0.000000 0.000000 8.232518 33.731213 2.295212
0.019553 17.588510 -31.051169 -2.107434 3.878777 0.654709 0.000000 0.000000 0.000000 -20.543495 -7.715222 -12.842141 4.292386 12.539655 37.668872 -1.943626 24.832523 -17.512598 4.623195 12.946395 39.168274 0.000000 0.000000 0.000000 23.115903 2.657012 -10.791561 -3.402262 -11.319493 33.364921 -0.244252 -14.885355 -23.537160 -3.122702 -10.891050 31.913293 -0.041840 5.595304 3.746956 -2.116279 7.390411 -1.999199 -2.663996 3.650247 -3.878574 10.859983 -5.517579 -25.010612 -4.187655 -11.123581 29.355817 -5.408363 -4.204998 13.164594 0.000000 0.000000 0.000000 13.741088 3.531385 -41.265161 14.563623 -23.534735 3.049532 12.268851 -8.245682 -2.592879 0.000000 0.000000 0.000000 -7.125000 0.000000 0.000000 -11.542477 32.482647 -3.601342 0.000000 0.000000 0.000000 5.541333 4.686876 -7.482943 -14.182705 -22.995256 -2.899067 -16.499108 0.731832 3.380731 0.000000 0.000000 0.000000 7.125000 0.000000 0.000000 8.246423 33.422269 2.361462
